<svg width="80" height="65" viewBox="0 0 80 65" fill="none" xmlns="http://www.w3.org/2000/svg">
<path d="M78.4844 21.2314C79.0937 20.7123 80 21.1979 80 22.0183V56.2598C80 60.6969 76.6406 64.2969 72.5 64.2969H7.5C3.35938 64.2969 0 60.6969 0 56.2598V22.0351C0 21.1979 0.890625 20.729 1.51562 21.2481C5.01562 24.1616 9.65625 27.862 25.5938 40.2693C28.8906 42.8478 34.4531 48.2729 40 48.2394C45.5781 48.2896 51.25 42.7474 54.4219 40.2693C70.3594 27.862 74.9844 24.1448 78.4844 21.2314ZM40 42.8646C43.625 42.9316 48.8437 37.9753 51.4687 35.9326C72.2031 19.8081 73.7812 18.4016 78.5625 14.3831C79.4687 13.6296 80 12.4575 80 11.2185V8.03711C80 3.59996 76.6406 0 72.5 0H7.5C3.35938 0 0 3.59996 0 8.03711V11.2185C0 12.4575 0.53125 13.6129 1.4375 14.3831C6.21875 18.3849 7.79688 19.8081 28.5313 35.9326C31.1563 37.9753 36.375 42.9316 40 42.8646Z" fill="#1D1D1D"/>
</svg>
