<svg width="80" height="86" viewBox="0 0 80 86" fill="none" xmlns="http://www.w3.org/2000/svg">
<path d="M77.0938 4.11659L60.8441 0.102169C59.0785 -0.332726 57.2661 0.654152 56.5473 2.42719L49.0475 21.1611C48.3913 22.8004 48.8288 24.7239 50.1256 25.8446L59.5942 34.1411C53.9693 46.9705 44.1414 57.6422 31.9072 63.7809L24.1574 53.6445C23.0949 52.2562 21.3137 51.7878 19.7825 52.4903L2.28283 60.5192C0.61099 61.3053 -0.310866 63.2456 0.0953755 65.1358L3.8453 82.5316C4.23592 84.3381 5.73589 85.6428 7.50147 85.6428C47.5163 85.6428 80 50.9348 80 8.03065C80 6.15725 78.7969 4.53476 77.0938 4.11659Z" fill="#1D1D1D"/>
</svg>
