<svg width="540" height="200" viewBox="0 0 540 200" fill="none" xmlns="http://www.w3.org/2000/svg">
<path d="M67.1995 101.778H31.0946L24.7676 116.495C23.2088 120.117 22.4294 122.822 22.4294 124.61C22.4294 126.031 23.0942 127.292 24.4238 128.392C25.7992 129.447 28.7335 130.135 33.2265 130.455V133H3.86117V130.455C7.75821 129.768 10.2798 128.874 11.426 127.773C13.7642 125.573 16.3546 121.103 19.1972 114.363L52.0011 37.6142H54.4081L86.8681 115.188C89.4814 121.423 91.8426 125.481 93.9516 127.361C96.1064 129.195 99.0865 130.226 102.892 130.455V133H66.0992V130.455C69.8128 130.272 72.3115 129.653 73.5953 128.599C74.9248 127.544 75.5896 126.26 75.5896 124.747C75.5896 122.73 74.6727 119.544 72.8388 115.188L67.1995 101.778ZM65.2739 96.6888L49.4565 59.0021L33.2265 96.6888H65.2739ZM106.949 133V130.455H110.457C114.4 130.455 117.196 129.195 118.847 126.673C119.855 125.16 120.36 121.767 120.36 116.495V56.2512C120.36 50.4286 119.718 46.7837 118.434 45.3166C116.646 43.2993 113.987 42.2907 110.457 42.2907H106.949V39.7461H144.911C158.849 39.7461 169.44 41.3279 176.683 44.4913C183.973 47.6548 189.819 52.9273 194.22 60.3087C198.667 67.6902 200.891 76.2178 200.891 85.8917C200.891 98.8665 196.948 109.709 189.062 118.42C180.214 128.14 166.735 133 148.625 133H106.949ZM133.564 126.26C139.386 127.544 144.269 128.186 148.212 128.186C158.849 128.186 167.674 124.449 174.689 116.976C181.704 109.503 185.211 99.3708 185.211 86.5794C185.211 73.6962 181.704 63.541 174.689 56.1137C167.674 48.6864 158.665 44.9727 147.662 44.9727C143.536 44.9727 138.836 45.6375 133.564 46.9671V126.26ZM257.834 37.6142C269.937 37.6142 280.413 42.2219 289.262 51.4372C298.156 60.6067 302.604 72.0686 302.604 85.8229C302.604 99.9898 298.134 111.75 289.193 121.103C280.253 130.455 269.433 135.132 256.733 135.132C243.896 135.132 233.099 130.57 224.342 121.446C215.631 112.323 211.275 100.517 211.275 86.0292C211.275 71.2205 216.319 59.1396 226.405 49.7867C235.162 41.6717 245.638 37.6142 257.834 37.6142ZM256.527 42.6345C248.183 42.6345 241.489 45.7292 236.446 51.9186C230.165 59.621 227.024 70.8995 227.024 85.7541C227.024 100.976 230.279 112.69 236.79 120.896C241.787 127.132 248.389 130.249 256.596 130.249C265.353 130.249 272.574 126.834 278.259 120.002C283.99 113.171 286.855 102.397 286.855 87.6797C286.855 71.7248 283.714 59.8273 277.433 51.9874C272.39 45.7522 265.421 42.6345 256.527 42.6345ZM306.249 39.7461H331.556L388.568 109.687V55.9074C388.568 50.1764 387.926 46.6003 386.642 45.1791C384.946 43.2535 382.264 42.2907 378.596 42.2907H375.364V39.7461H407.824V42.2907H404.523C400.58 42.2907 397.783 43.4827 396.133 45.8668C395.124 47.3339 394.62 50.6808 394.62 55.9074V134.513H392.144L330.662 59.4147V116.839C330.662 122.57 331.281 126.146 332.519 127.567C334.261 129.493 336.943 130.455 340.565 130.455H343.866V133H311.406V130.455H314.639C318.627 130.455 321.447 129.263 323.098 126.879C324.106 125.412 324.61 122.065 324.61 116.839V51.9874C321.905 48.8239 319.842 46.7379 318.421 45.7292C317.046 44.7206 315.005 43.7807 312.3 42.9096C310.971 42.497 308.954 42.2907 306.249 42.2907V39.7461ZM453.35 130.455V133H413.394V130.455H416.695C420.546 130.455 423.343 129.332 425.085 127.086C426.186 125.619 426.736 122.088 426.736 116.495V56.2512C426.736 51.5289 426.438 48.4113 425.842 46.8983C425.383 45.7522 424.443 44.7664 423.022 43.9412C421.005 42.8408 418.896 42.2907 416.695 42.2907H413.394V39.7461H453.35V42.2907H449.981C446.175 42.2907 443.401 43.4139 441.659 45.6605C440.513 47.1276 439.94 50.6578 439.94 56.2512V116.495C439.94 121.217 440.238 124.335 440.834 125.848C441.292 126.994 442.255 127.98 443.722 128.805C445.694 129.905 447.78 130.455 449.981 130.455H453.35ZM521.365 37.6142V69.868H518.821C517.995 63.6785 516.505 58.7499 514.35 55.0821C512.241 51.4143 509.216 48.503 505.273 46.3482C501.33 44.1933 497.249 43.1159 493.031 43.1159C488.263 43.1159 484.32 44.583 481.203 47.5173C478.085 50.4057 476.526 53.7067 476.526 57.4203C476.526 60.2629 477.512 62.8533 479.483 65.1915C482.326 68.6301 489.088 73.2148 499.771 78.9458C508.482 83.6222 514.419 87.2212 517.583 89.7429C520.792 92.2186 523.245 95.1529 524.941 98.5456C526.683 101.938 527.555 105.491 527.555 109.205C527.555 116.266 524.804 122.363 519.302 127.498C513.846 132.587 506.809 135.132 498.189 135.132C495.484 135.132 492.94 134.926 490.556 134.513C489.134 134.284 486.177 133.458 481.684 132.037C477.237 130.57 474.417 129.837 473.225 129.837C472.079 129.837 471.162 130.18 470.474 130.868C469.833 131.556 469.351 132.977 469.03 135.132H466.486V103.153H469.03C470.222 109.847 471.827 114.867 473.844 118.214C475.861 121.515 478.933 124.266 483.06 126.467C487.232 128.667 491.793 129.768 496.745 129.768C502.476 129.768 506.992 128.255 510.293 125.229C513.64 122.203 515.313 118.627 515.313 114.501C515.313 112.208 514.671 109.893 513.388 107.555C512.15 105.216 510.201 103.039 507.542 101.021C505.754 99.6459 500.871 96.7346 492.894 92.2874C484.916 87.7943 479.231 84.2182 475.839 81.5591C472.492 78.8999 469.947 75.9657 468.205 72.7563C466.463 69.547 465.592 66.0168 465.592 62.1656C465.592 55.4718 468.159 49.718 473.294 44.904C478.429 40.0441 484.962 37.6142 492.894 37.6142C497.845 37.6142 503.095 38.8292 508.642 41.2591C511.21 42.4053 513.021 42.9784 514.075 42.9784C515.267 42.9784 516.23 42.6345 516.964 41.9468C517.743 41.2132 518.362 39.769 518.821 37.6142H521.365Z" fill="black"/>
<path d="M204.559 171.639H226.222V158.297C226.222 155.913 226.073 154.343 225.775 153.586C225.546 153.013 225.064 152.52 224.331 152.108C223.345 151.558 222.302 151.282 221.202 151.282H219.551V150.01H239.495V151.282H237.844C236.744 151.282 235.701 151.546 234.715 152.073C233.982 152.44 233.478 153.002 233.202 153.758C232.95 154.492 232.824 156.005 232.824 158.297V188.385C232.824 190.746 232.973 192.305 233.271 193.061C233.5 193.634 233.97 194.127 234.681 194.54C235.69 195.09 236.744 195.365 237.844 195.365H239.495V196.637H219.551V195.365H221.202C223.105 195.365 224.491 194.803 225.362 193.68C225.936 192.946 226.222 191.181 226.222 188.385V174.183H204.559V188.385C204.559 190.746 204.708 192.305 205.006 193.061C205.235 193.634 205.717 194.127 206.45 194.54C207.436 195.09 208.479 195.365 209.579 195.365H211.264V196.637H191.286V195.365H192.937C194.862 195.365 196.261 194.803 197.132 193.68C197.682 192.946 197.957 191.181 197.957 188.385V158.297C197.957 155.913 197.808 154.343 197.51 153.586C197.281 153.013 196.811 152.52 196.1 152.108C195.092 151.558 194.037 151.282 192.937 151.282H191.286V150.01H211.264V151.282H209.579C208.479 151.282 207.436 151.546 206.45 152.073C205.74 152.44 205.247 153.002 204.972 153.758C204.697 154.492 204.559 156.005 204.559 158.297V171.639ZM258.579 164.211C263.347 164.211 267.175 166.022 270.064 169.644C272.517 172.739 273.743 176.292 273.743 180.304C273.743 183.124 273.067 185.978 271.714 188.866C270.362 191.754 268.494 193.932 266.109 195.399C263.748 196.866 261.112 197.6 258.201 197.6C253.456 197.6 249.685 195.709 246.888 191.926C244.527 188.74 243.346 185.164 243.346 181.198C243.346 178.31 244.057 175.444 245.478 172.602C246.922 169.736 248.814 167.627 251.152 166.275C253.49 164.899 255.966 164.211 258.579 164.211ZM257.513 166.447C256.298 166.447 255.072 166.813 253.834 167.547C252.619 168.258 251.633 169.518 250.877 171.329C250.12 173.14 249.742 175.467 249.742 178.31C249.742 182.894 250.647 186.849 252.458 190.173C254.292 193.497 256.699 195.159 259.679 195.159C261.903 195.159 263.737 194.242 265.181 192.408C266.625 190.574 267.347 187.422 267.347 182.952C267.347 177.358 266.144 172.957 263.737 169.748C262.109 167.547 260.035 166.447 257.513 166.447ZM287.532 154.79V165.14H294.89V167.547H287.532V187.972C287.532 190.012 287.818 191.388 288.391 192.098C288.987 192.809 289.744 193.164 290.661 193.164C291.417 193.164 292.151 192.935 292.862 192.476C293.572 191.995 294.122 191.296 294.512 190.379H295.853C295.051 192.625 293.916 194.322 292.449 195.468C290.982 196.591 289.469 197.153 287.91 197.153C286.855 197.153 285.824 196.866 284.815 196.293C283.807 195.697 283.062 194.861 282.58 193.783C282.099 192.683 281.858 190.998 281.858 188.728V167.547H276.872V166.412C278.133 165.908 279.417 165.06 280.723 163.868C282.053 162.653 283.234 161.22 284.265 159.569C284.792 158.698 285.526 157.105 286.466 154.79H287.532ZM303.28 177.003C303.257 181.679 304.392 185.347 306.685 188.006C308.977 190.666 311.67 191.995 314.765 191.995C316.828 191.995 318.616 191.433 320.129 190.31C321.665 189.164 322.949 187.215 323.981 184.465L325.046 185.152C324.565 188.293 323.167 191.158 320.851 193.749C318.536 196.316 315.636 197.6 312.152 197.6C308.369 197.6 305.126 196.133 302.421 193.199C299.739 190.241 298.398 186.276 298.398 181.301C298.398 175.914 299.773 171.719 302.524 168.716C305.298 165.69 308.771 164.177 312.943 164.177C316.473 164.177 319.373 165.346 321.642 167.684C323.912 170 325.046 173.106 325.046 177.003H303.28ZM303.28 175.009H317.86C317.745 172.991 317.505 171.57 317.138 170.745C316.565 169.461 315.705 168.452 314.559 167.719C313.436 166.985 312.255 166.618 311.017 166.618C309.114 166.618 307.407 167.363 305.894 168.854C304.404 170.321 303.533 172.372 303.28 175.009ZM340.107 147.741V189.519C340.107 191.491 340.245 192.797 340.52 193.439C340.818 194.081 341.265 194.574 341.861 194.918C342.457 195.239 343.569 195.399 345.196 195.399V196.637H329.757V195.399C331.202 195.399 332.187 195.25 332.714 194.952C333.242 194.654 333.654 194.161 333.952 193.474C334.25 192.786 334.399 191.468 334.399 189.519V160.91C334.399 157.357 334.319 155.18 334.159 154.377C333.998 153.552 333.735 152.99 333.368 152.692C333.024 152.394 332.577 152.245 332.027 152.245C331.431 152.245 330.674 152.429 329.757 152.795L329.173 151.592L338.56 147.741H340.107Z" fill="black"/>
<line x1="0.413452" y1="2.12208" x2="539.375" y2="2.12208" stroke="#F5A303" stroke-width="3.75583"/>
<line x1="360.509" y1="177.942" x2="529.52" y2="178.445" stroke="#F5A303" stroke-width="3.28635"/>
<line x1="2.76572" y1="177.472" x2="171.777" y2="177.975" stroke="#F5A303" stroke-width="3.28635"/>
</svg>
