<svg width="80" height="81" viewBox="0 0 80 81" fill="none" xmlns="http://www.w3.org/2000/svg">
<path d="M71.4286 0.85714H8.57143C6.29814 0.85714 4.11797 1.7602 2.51051 3.36765C0.903059 4.97511 0 7.15528 0 9.42857L0 72.2857C0 74.559 0.903059 76.7392 2.51051 78.3466C4.11797 79.9541 6.29814 80.8571 8.57143 80.8571H33.0804V53.6589H21.8304V40.8571H33.0804V31.1C33.0804 20.0018 39.6875 13.8714 49.8071 13.8714C54.6536 13.8714 59.7214 14.7357 59.7214 14.7357V25.6286H54.1375C48.6357 25.6286 46.9196 29.0429 46.9196 32.5446V40.8571H59.2018L57.2375 53.6589H46.9196V80.8571H71.4286C73.7019 80.8571 75.882 79.9541 77.4895 78.3466C79.0969 76.7392 80 74.559 80 72.2857V9.42857C80 7.15528 79.0969 4.97511 77.4895 3.36765C75.882 1.7602 73.7019 0.85714 71.4286 0.85714V0.85714Z" fill="#1D1D1D"/>
</svg>
