<svg width="80" height="80" viewBox="0 0 80 80" fill="none" xmlns="http://www.w3.org/2000/svg">
<path d="M40.0089 19.4847C28.6581 19.4847 19.5025 28.6403 19.5025 39.9911C19.5025 51.3419 28.6581 60.4975 40.0089 60.4975C51.3597 60.4975 60.5153 51.3419 60.5153 39.9911C60.5153 28.6403 51.3597 19.4847 40.0089 19.4847ZM40.0089 53.3229C32.6737 53.3229 26.6771 47.3441 26.6771 39.9911C26.6771 32.638 32.6559 26.6592 40.0089 26.6592C47.362 26.6592 53.3408 32.638 53.3408 39.9911C53.3408 47.3441 47.3441 53.3229 40.0089 53.3229V53.3229ZM66.1372 18.6458C66.1372 21.3051 63.9955 23.4289 61.3542 23.4289C58.6949 23.4289 56.5711 21.2872 56.5711 18.6458C56.5711 16.0045 58.7128 13.8628 61.3542 13.8628C63.9955 13.8628 66.1372 16.0045 66.1372 18.6458ZM79.7189 23.5003C79.4155 17.0931 77.952 11.4177 73.2582 6.74177C68.5823 2.06581 62.9069 0.602342 56.4997 0.281093C49.8963 -0.0936977 30.1037 -0.0936977 23.5003 0.281093C17.111 0.584495 11.4356 2.04796 6.74177 6.72393C2.04796 11.3999 0.602342 17.0753 0.281093 23.4824C-0.0936977 30.0859 -0.0936977 49.8784 0.281093 56.4819C0.584495 62.889 2.04796 68.5644 6.74177 73.2404C11.4356 77.9163 17.0931 79.3798 23.5003 79.701C30.1037 80.0758 49.8963 80.0758 56.4997 79.701C62.9069 79.3976 68.5823 77.9342 73.2582 73.2404C77.9342 68.5644 79.3977 62.889 79.7189 56.4819C80.0937 49.8784 80.0937 30.1037 79.7189 23.5003V23.5003ZM71.188 63.5672C69.7959 67.0652 67.101 69.7602 63.5851 71.1701C58.3201 73.2582 45.8271 72.7763 40.0089 72.7763C34.1907 72.7763 21.6799 73.2404 16.4328 71.1701C12.9347 69.778 10.2398 67.0831 8.82989 63.5672C6.74177 58.3023 7.22365 45.8093 7.22365 39.9911C7.22365 34.1729 6.75962 21.662 8.82989 16.4149C10.222 12.9169 12.9169 10.222 16.4328 8.81205C21.6977 6.72393 34.1907 7.2058 40.0089 7.2058C45.8271 7.2058 58.338 6.74177 63.5851 8.81205C67.0831 10.2041 69.778 12.8991 71.188 16.4149C73.2761 21.6799 72.7942 34.1729 72.7942 39.9911C72.7942 45.8093 73.2761 58.3201 71.188 63.5672Z" fill="#1D1D1D"/>
</svg>
