<svg width="1148" height="424" viewBox="0 0 1148 424" fill="none" xmlns="http://www.w3.org/2000/svg">
<path d="M142.256 215.496H65.3516L51.875 246.844C48.5547 254.559 46.8945 260.32 46.8945 264.129C46.8945 267.156 48.3105 269.842 51.1426 272.186C54.0723 274.432 60.3223 275.896 69.8926 276.58V282H7.34375V276.58C15.6445 275.115 21.0156 273.211 23.457 270.867C28.4375 266.18 33.9551 256.658 40.0098 242.303L109.883 78.8262H115.01L184.15 244.061C189.717 257.342 194.746 265.984 199.238 269.988C203.828 273.895 210.176 276.092 218.281 276.58V282H139.912V276.58C147.822 276.189 153.145 274.871 155.879 272.625C158.711 270.379 160.127 267.645 160.127 264.422C160.127 260.125 158.174 253.338 154.268 244.061L142.256 215.496ZM138.154 204.656L104.463 124.383L69.8926 204.656H138.154ZM226.924 282V276.58H234.395C242.793 276.58 248.75 273.895 252.266 268.523C254.414 265.301 255.488 258.074 255.488 246.844V118.523C255.488 106.121 254.121 98.3574 251.387 95.2324C247.578 90.9355 241.914 88.7871 234.395 88.7871H226.924V83.3672H307.783C337.471 83.3672 360.029 86.7363 375.459 93.4746C390.986 100.213 403.438 111.443 412.812 127.166C422.285 142.889 427.021 161.053 427.021 181.658C427.021 209.295 418.623 232.391 401.826 250.945C382.979 271.648 354.268 282 315.693 282H226.924ZM283.613 267.645C296.016 270.379 306.416 271.746 314.814 271.746C337.471 271.746 356.27 263.787 371.211 247.869C386.152 231.951 393.623 210.369 393.623 183.123C393.623 155.682 386.152 134.051 371.211 118.23C356.27 102.41 337.08 94.5 313.643 94.5C304.854 94.5 294.844 95.916 283.613 98.748V267.645ZM548.311 78.8262C574.092 78.8262 596.406 88.6406 615.254 108.27C634.199 127.801 643.672 152.215 643.672 181.512C643.672 211.688 634.15 236.736 615.107 256.658C596.064 276.58 573.018 286.541 545.967 286.541C518.623 286.541 495.625 276.824 476.973 257.391C458.418 237.957 449.141 212.811 449.141 181.951C449.141 150.408 459.883 124.676 481.367 104.754C500.02 87.4688 522.334 78.8262 548.311 78.8262ZM545.527 89.5195C527.754 89.5195 513.496 96.1113 502.754 109.295C489.375 125.701 482.686 149.725 482.686 181.365C482.686 213.787 489.619 238.738 503.486 256.219C514.131 269.5 528.193 276.141 545.674 276.141C564.326 276.141 579.707 268.865 591.816 254.314C604.023 239.764 610.127 216.814 610.127 185.467C610.127 151.482 603.438 126.141 590.059 109.441C579.316 96.1602 564.473 89.5195 545.527 89.5195ZM651.436 83.3672H705.342L826.777 232.342V117.791C826.777 105.584 825.41 97.9668 822.676 94.9395C819.062 90.8379 813.35 88.7871 805.537 88.7871H798.652V83.3672H867.793V88.7871H860.762C852.363 88.7871 846.406 91.3262 842.891 96.4043C840.742 99.5293 839.668 106.658 839.668 117.791V285.223H834.395L703.438 125.262V247.576C703.438 259.783 704.756 267.4 707.393 270.428C711.104 274.529 716.816 276.58 724.531 276.58H731.562V282H662.422V276.58H669.307C677.803 276.58 683.809 274.041 687.324 268.963C689.473 265.838 690.547 258.709 690.547 247.576V109.441C684.785 102.703 680.391 98.2598 677.363 96.1113C674.434 93.9629 670.088 91.9609 664.326 90.1055C661.494 89.2266 657.197 88.7871 651.436 88.7871V83.3672ZM964.766 276.58V282H879.658V276.58H886.689C894.893 276.58 900.85 274.188 904.561 269.402C906.904 266.277 908.076 258.758 908.076 246.844V118.523C908.076 108.465 907.441 101.824 906.172 98.6016C905.195 96.1602 903.193 94.0605 900.166 92.3027C895.869 89.959 891.377 88.7871 886.689 88.7871H879.658V83.3672H964.766V88.7871H957.588C949.482 88.7871 943.574 91.1797 939.863 95.9648C937.422 99.0898 936.201 106.609 936.201 118.523V246.844C936.201 256.902 936.836 263.543 938.105 266.766C939.082 269.207 941.133 271.307 944.258 273.064C948.457 275.408 952.9 276.58 957.588 276.58H964.766ZM1109.64 78.8262V147.527H1104.22C1102.46 134.344 1099.29 123.846 1094.7 116.033C1090.21 108.221 1083.76 102.02 1075.36 97.4297C1066.96 92.8398 1058.27 90.5449 1049.29 90.5449C1039.13 90.5449 1030.73 93.6699 1024.09 99.9199C1017.45 106.072 1014.13 113.104 1014.13 121.014C1014.13 127.068 1016.23 132.586 1020.43 137.566C1026.48 144.891 1040.89 154.656 1063.64 166.863C1082.2 176.824 1094.84 184.49 1101.58 189.861C1108.42 195.135 1113.64 201.385 1117.26 208.611C1120.97 215.838 1122.82 223.406 1122.82 231.316C1122.82 246.355 1116.96 259.344 1105.24 270.281C1093.62 281.121 1078.63 286.541 1060.27 286.541C1054.51 286.541 1049.09 286.102 1044.01 285.223C1040.99 284.734 1034.69 282.977 1025.12 279.949C1015.64 276.824 1009.64 275.262 1007.1 275.262C1004.66 275.262 1002.71 275.994 1001.24 277.459C999.873 278.924 998.848 281.951 998.164 286.541H992.744V218.426H998.164C1000.7 232.684 1004.12 243.377 1008.42 250.506C1012.71 257.537 1019.26 263.396 1028.05 268.084C1036.93 272.771 1046.65 275.115 1057.2 275.115C1069.4 275.115 1079.02 271.893 1086.05 265.447C1093.18 259.002 1096.75 251.385 1096.75 242.596C1096.75 237.713 1095.38 232.781 1092.65 227.801C1090.01 222.82 1085.86 218.182 1080.2 213.885C1076.39 210.955 1065.99 204.754 1048.99 195.281C1032 185.711 1019.89 178.094 1012.67 172.43C1005.54 166.766 1000.12 160.516 996.406 153.68C992.695 146.844 990.84 139.324 990.84 131.121C990.84 116.863 996.309 104.607 1007.25 94.3535C1018.18 84.002 1032.1 78.8262 1048.99 78.8262C1059.54 78.8262 1070.72 81.4141 1082.54 86.5898C1088.01 89.0313 1091.87 90.252 1094.11 90.252C1096.65 90.252 1098.7 89.5195 1100.26 88.0547C1101.92 86.4922 1103.24 83.416 1104.22 78.8262H1109.64Z" fill="white"/>
<path d="M434.835 365.753H480.978V337.335C480.978 332.257 480.66 328.912 480.025 327.301C479.537 326.08 478.512 325.03 476.949 324.151C474.85 322.979 472.628 322.394 470.284 322.394H466.769V319.684H509.249V322.394H505.733C503.39 322.394 501.168 322.955 499.068 324.078C497.506 324.859 496.432 326.056 495.846 327.667C495.309 329.229 495.04 332.452 495.04 337.335V401.422C495.04 406.451 495.357 409.771 495.992 411.383C496.48 412.604 497.481 413.653 498.995 414.532C501.144 415.704 503.39 416.29 505.733 416.29H509.249V419H466.769V416.29H470.284C474.337 416.29 477.291 415.094 479.146 412.701C480.367 411.139 480.978 407.379 480.978 401.422V371.173H434.835V401.422C434.835 406.451 435.152 409.771 435.787 411.383C436.275 412.604 437.301 413.653 438.863 414.532C440.963 415.704 443.185 416.29 445.528 416.29H449.117V419H406.563V416.29H410.079C414.181 416.29 417.159 415.094 419.015 412.701C420.187 411.139 420.772 407.379 420.772 401.422V337.335C420.772 332.257 420.455 328.912 419.82 327.301C419.332 326.08 418.331 325.03 416.817 324.151C414.669 322.979 412.423 322.394 410.079 322.394H406.563V319.684H449.117V322.394H445.528C443.185 322.394 440.963 322.955 438.863 324.078C437.35 324.859 436.3 326.056 435.714 327.667C435.128 329.229 434.835 332.452 434.835 337.335V365.753ZM549.898 349.933C560.055 349.933 568.209 353.79 574.361 361.505C579.586 368.097 582.198 375.665 582.198 384.21C582.198 390.216 580.758 396.295 577.877 402.447C574.996 408.6 571.017 413.238 565.938 416.363C560.909 419.488 555.294 421.051 549.093 421.051C538.985 421.051 530.953 417.022 524.996 408.966C519.967 402.179 517.452 394.562 517.452 386.114C517.452 379.962 518.966 373.858 521.993 367.804C525.069 361.7 529.098 357.208 534.078 354.327C539.059 351.397 544.332 349.933 549.898 349.933ZM547.628 354.693C545.04 354.693 542.428 355.475 539.791 357.037C537.203 358.551 535.104 361.236 533.492 365.094C531.881 368.951 531.075 373.907 531.075 379.962C531.075 389.728 533.004 398.15 536.861 405.23C540.768 412.311 545.895 415.851 552.242 415.851C556.979 415.851 560.885 413.897 563.961 409.991C567.037 406.085 568.575 399.371 568.575 389.85C568.575 377.936 566.012 368.561 560.885 361.725C557.418 357.037 552.999 354.693 547.628 354.693ZM611.568 329.864V351.91H627.242V357.037H611.568V400.543C611.568 404.889 612.179 407.818 613.399 409.332C614.669 410.846 616.28 411.603 618.233 411.603C619.845 411.603 621.407 411.114 622.921 410.138C624.435 409.112 625.606 407.623 626.437 405.67H629.293C627.584 410.455 625.167 414.068 622.042 416.51C618.917 418.902 615.694 420.099 612.374 420.099C610.128 420.099 607.931 419.488 605.782 418.268C603.634 416.998 602.047 415.216 601.021 412.921C599.996 410.577 599.483 406.988 599.483 402.154V357.037H588.863V354.62C591.549 353.546 594.283 351.739 597.066 349.2C599.898 346.612 602.413 343.561 604.61 340.045C605.733 338.189 607.296 334.796 609.298 329.864H611.568ZM645.113 377.179C645.064 387.14 647.481 394.952 652.364 400.616C657.247 406.28 662.984 409.112 669.576 409.112C673.971 409.112 677.779 407.916 681.002 405.523C684.273 403.082 687.008 398.932 689.205 393.072L691.476 394.537C690.45 401.227 687.472 407.33 682.54 412.848C677.608 418.316 671.432 421.051 664.01 421.051C655.953 421.051 649.044 417.926 643.282 411.676C637.569 405.377 634.713 396.93 634.713 386.334C634.713 374.859 637.643 365.924 643.502 359.527C649.41 353.082 656.808 349.859 665.694 349.859C673.214 349.859 679.391 352.35 684.225 357.33C689.059 362.262 691.476 368.878 691.476 377.179H645.113ZM645.113 372.931H676.168C675.924 368.634 675.411 365.606 674.63 363.849C673.409 361.114 671.578 358.966 669.137 357.403C666.744 355.841 664.229 355.06 661.593 355.06C657.54 355.06 653.902 356.646 650.68 359.82C647.506 362.945 645.65 367.315 645.113 372.931ZM723.556 314.85V403.839C723.556 408.038 723.849 410.821 724.435 412.188C725.069 413.556 726.021 414.605 727.291 415.338C728.561 416.021 730.929 416.363 734.396 416.363V419H701.51V416.363C704.586 416.363 706.686 416.046 707.809 415.411C708.932 414.776 709.811 413.727 710.445 412.262C711.08 410.797 711.397 407.989 711.397 403.839V342.901C711.397 335.333 711.227 330.694 710.885 328.985C710.543 327.228 709.981 326.031 709.2 325.396C708.468 324.762 707.516 324.444 706.344 324.444C705.074 324.444 703.463 324.835 701.51 325.616L700.265 323.053L720.26 314.85H723.556Z" fill="white"/>
<line y1="4" x2="1148" y2="4" stroke="#F5A303" stroke-width="8"/>
<line x1="767.01" y1="378.5" x2="1127.01" y2="379.571" stroke="#F5A303" stroke-width="7"/>
<line x1="5.01042" y1="377.5" x2="365.009" y2="378.571" stroke="#F5A303" stroke-width="7"/>
</svg>
