<svg width="100" height="76" viewBox="0 0 100 76" fill="none" xmlns="http://www.w3.org/2000/svg">
<path d="M98.1055 25.5156C98.8672 24.9102 100 25.4766 100 26.4336V66.375C100 71.5508 95.8008 75.75 90.625 75.75H9.375C4.19922 75.75 0 71.5508 0 66.375V26.4531C0 25.4766 1.11328 24.9297 1.89453 25.5352C6.26953 28.9336 12.0703 33.25 31.9922 47.7227C36.1133 50.7305 43.0664 57.0586 50 57.0195C56.9727 57.0781 64.0625 50.6133 68.0273 47.7227C87.9492 33.25 93.7305 28.9141 98.1055 25.5156ZM50 50.75C54.5313 50.8281 61.0547 45.0469 64.3359 42.6641C90.2539 23.8555 92.2266 22.2148 98.2031 17.5273C99.3359 16.6484 100 15.2813 100 13.8359V10.125C100 4.94922 95.8008 0.75 90.625 0.75H9.375C4.19922 0.75 0 4.94922 0 10.125V13.8359C0 15.2813 0.664062 16.6289 1.79687 17.5273C7.77344 22.1953 9.7461 23.8555 35.6641 42.6641C38.9453 45.0469 45.4687 50.8281 50 50.75Z" fill="#FFF9F9"/>
</svg>
