<svg width="101" height="101" viewBox="0 0 101 101" fill="none" xmlns="http://www.w3.org/2000/svg">
<path d="M97.366 5.80548L77.0539 1.11808C74.8469 0.610274 72.5813 1.76259 71.6829 3.83286L62.3081 25.7074C61.4878 27.6214 62.0347 29.8675 63.6557 31.176L75.4914 40.8633C68.4603 55.8435 56.1754 68.3042 40.8828 75.472L31.1955 63.6363C29.8674 62.0152 27.6408 61.4684 25.7268 62.2887L3.85227 71.6635C1.76247 72.5814 0.610151 74.847 1.11795 77.054L5.80536 97.3661C6.29363 99.4754 8.16859 100.999 10.3756 100.999C60.3941 100.999 100.999 60.4723 100.999 10.3757C100.999 8.18824 99.4948 6.29375 97.366 5.80548Z" fill="#FFFEFE"/>
</svg>
